<svg id="Layer_1" data-name="Layer 1" xmlns="http://www.w3.org/2000/svg" viewBox="0 0 1000 300"><defs><style>.cls-1{fill:#231f20;}.cls-2{fill:#bc7418;}.cls-3{fill:#dfa35a;}.cls-4{fill:#f4c9a8;}.cls-5{fill:#3a3532;}.cls-6{fill:#c75328;}.cls-7{fill:#f79e5d;}.cls-8{fill:#378a8c;}.cls-9{opacity:0.2;}</style></defs><title>iconsArtboard 2</title><path class="cls-1" d="M612.85,77.16q0,20.8-11.71,29-10.8,7.57-29.68,7.57H542.89v-1.92h6.66V45h-6.66V43h31.19q19.38,0,29.08,7.92T612.85,77.16Zm-43.61,34.63h3.84q10.2,0,14.59-7.22t4.39-24.18V74.54q0-22.71-8.68-27.36Q579.23,45,571.66,45h-2.42Z"/><path class="cls-1" d="M625,108q-6.51-6.71-6.51-18.68T625.82,71q7.32-6.36,18.63-6.36,22.92,0,22,23H638V91.6q0,9.9,2.52,14.94t8.78,5q11.71,0,15.35-12.52l1.82.3a20.87,20.87,0,0,1-6.92,11.31q-5,4-15,4Q631.52,114.72,625,108Zm13.07-22.36h10.4V80.7q0-8.18-1-11.16a3.78,3.78,0,0,0-3.84-3q-2.88,0-4.24,3.18t-1.36,11Z"/><path class="cls-1" d="M671.4,114.72V96.65h1.21q2.62,8.78,7.07,12.32a17.27,17.27,0,0,0,11.11,3.53q10.3,0,10.3-6.56a4.58,4.58,0,0,0-2.52-4.24,34,34,0,0,0-10.1-3.43A39.51,39.51,0,0,1,677,93.42q-5.55-3.63-5.55-11.51t4.85-12.57q4.85-4.69,12.92-4.69A25.14,25.14,0,0,1,699.36,67a8.36,8.36,0,0,0,2.93.81,2.34,2.34,0,0,0,1.72-.71,11.63,11.63,0,0,0,1.72-2.62h1.11V79.89h-1.21q-5.15-13.12-16-13.12-4.75,0-7.07,1.67a5,5,0,0,0-2.32,4.19A3.62,3.62,0,0,0,681,75q.71.86,1.11,1.26a5.16,5.16,0,0,0,1.31.86c.61.3,1.11.54,1.51.71s1,.39,1.87.66a14.69,14.69,0,0,0,1.87.5,77.17,77.17,0,0,1,9.89,3A33.92,33.92,0,0,1,704.31,85q5.55,3.84,5.55,12.37t-5,12.92q-5,4.39-13.83,4.39a26.78,26.78,0,0,1-12.11-2.93A3.89,3.89,0,0,0,677,111q-2.22,0-4.34,3.74Z"/><path class="cls-1" d="M712.49,65.65h24.73v46.24h5.65v1.82h-30v-1.82h5.55V67.47h-6Zm15.24-7q-5.35,0-7.62-2.73a10.21,10.21,0,0,1-2.27-6.76,9.33,9.33,0,0,1,2.47-6.66q2.47-2.62,7.52-2.62t7.67,2.37A8.65,8.65,0,0,1,738.13,49a9.7,9.7,0,0,1-2.52,7Q733.08,58.69,727.73,58.69Z"/><path class="cls-1" d="M785.37,60.4l2.83-1.72q.61-3.13-2.42-3.13-4.34,0-4.34,6.66a30.43,30.43,0,0,0,.71,6.06q7.67,5.15,7.67,13.17t-5.55,12.47q-5.55,4.44-15,4.44a43.64,43.64,0,0,1-8.18-.81q-4.44,2.83-4.44,4.24t6.46,1.41h10.3q22.92,0,22.92,16.46a16.7,16.7,0,0,1-6.92,14.08q-6.92,5.2-21.55,5.2-24.94,0-24.94-10.8,0-5.86,7.77-8.08l6.06,2.73a20.82,20.82,0,0,0-.81,5.55q0,8.68,12.92,8.68,7.88,0,12.11-2.93t4.24-7.27q0-4.34-2.57-5.8t-10.25-1.46h-9.79q-8.18,0-11.71-2.73a8.2,8.2,0,0,1-3.53-6.71,9.33,9.33,0,0,1,2.52-6.66,45.91,45.91,0,0,1,9-6.61q-11.71-3.33-11.71-15.34a15.26,15.26,0,0,1,5.45-12.21q5.45-4.64,16.35-4.64a23.18,23.18,0,0,1,11.21,2.52,23,23,0,0,1-.61-4.95q0-5.65,3-8.18a10.31,10.31,0,0,1,6.76-2.52,8.85,8.85,0,0,1,6,2,6.77,6.77,0,0,1,2.27,5.4,6.58,6.58,0,0,1-1.82,5.1,6.26,6.26,0,0,1-4.39,1.67,6.48,6.48,0,0,1-4.24-1.36A5,5,0,0,1,785.37,60.4ZM764,79.28v5.45q0,6.76,1.16,9.19a3.75,3.75,0,0,0,3.53,2.42A3.56,3.56,0,0,0,772.1,94q1.06-2.37,1.06-9.74V79.28q0-7.87-1-10.35a3.48,3.48,0,0,0-3.38-2.47A3.85,3.85,0,0,0,765.18,69Q764,71.61,764,79.28Z"/><path class="cls-1" d="M797.79,65.65h24.33v9.29a16.78,16.78,0,0,1,4.95-7.47q3.33-2.83,10.09-2.83,15.65,0,15.65,16.86v30.39h5.65v1.82H829.89v-1.82H834V79.08q0-6.06-.81-7.82a2.94,2.94,0,0,0-2.93-1.77q-3.23,0-5.7,4.24A20.1,20.1,0,0,0,822.12,84v27.86h4.34v1.82H797.79v-1.82h5.55V67.47h-5.55Z"/><path class="cls-1" d="M573.58,233.74a15.18,15.18,0,0,0,8.93-2.73q3.88-2.73,3.89-8.23a9.66,9.66,0,0,0-4.19-8.43,40,40,0,0,0-11.91-5.1,81.45,81.45,0,0,1-11.21-3.79,29.67,29.67,0,0,1-6.61-4.24Q546.22,196,546.22,185a21.16,21.16,0,0,1,6.41-15.45q6.41-6.46,17.51-6.46a42.85,42.85,0,0,1,11.16,1.57,41,41,0,0,0,7.22,1.56q1.41,0,2.52-2h1.11l.71,20.39h-1.62a62.61,62.61,0,0,0-10.15-14.08q-5.3-5.3-11.51-5.3t-9.64,2.88a9.51,9.51,0,0,0-3.43,7.67,8.22,8.22,0,0,0,4.09,7.37,37,37,0,0,0,10,4.19q6,1.62,7.82,2.22t4.64,1.67a23.89,23.89,0,0,1,4.54,2.22,32.18,32.18,0,0,1,3.74,2.93,13.92,13.92,0,0,1,3.08,3.89,23.1,23.1,0,0,1,2.73,11.51q0,10.9-6.81,17.52t-17.92,6.61a66.73,66.73,0,0,1-13.17-1.51q-7.42-1.51-8.23-1.51-1.42,0-2.73,3h-1.41l-1-24h1.72A55.43,55.43,0,0,0,559,227.18Q565.9,233.74,573.58,233.74Z"/><path class="cls-1" d="M597.81,188.62V186.8h29.28v1.82h-5.45l11,33.52,11.71-33.52h-6.76V186.8h14.23v1.82h-5L627.89,243q-3.33,9.49-7.47,13.28a14.42,14.42,0,0,1-10.09,3.79q-6,0-9.39-2.73a8.51,8.51,0,0,1-3.43-7q0-4.24,2.22-6.46a7.91,7.91,0,0,1,5.86-2.22q8.38,0,8.38,7a13.59,13.59,0,0,1-.61,3.63h-3.53a5.48,5.48,0,0,0-.2,3.84,2.6,2.6,0,0,0,2.73,1.51q4.14,0,7.37-4.09t6.16-12.47l2.22-6.26h-8.88l-17.26-46.24Z"/><path class="cls-1" d="M651.31,235.86V217.79h1.21q2.62,8.78,7.07,12.32a17.27,17.27,0,0,0,11.11,3.53q10.3,0,10.3-6.56a4.58,4.58,0,0,0-2.52-4.24,34,34,0,0,0-10.1-3.43,39.45,39.45,0,0,1-11.51-4.85q-5.55-3.63-5.55-11.51t4.85-12.57q4.85-4.69,12.92-4.69a25.14,25.14,0,0,1,10.2,2.32,8.36,8.36,0,0,0,2.93.81,2.34,2.34,0,0,0,1.72-.71,11.64,11.64,0,0,0,1.72-2.62h1.11V201h-1.21q-5.15-13.12-16-13.12-4.75,0-7.07,1.67a5,5,0,0,0-2.32,4.19,3.62,3.62,0,0,0,.71,2.37q.71.86,1.11,1.26a5.13,5.13,0,0,0,1.31.86c.61.3,1.11.54,1.51.71s1,.39,1.87.66a14.69,14.69,0,0,0,1.87.5,77.17,77.17,0,0,1,9.89,3,33.92,33.92,0,0,1,5.75,3.08q5.55,3.84,5.55,12.37t-5,12.92q-5,4.39-13.83,4.39a26.78,26.78,0,0,1-12.11-2.93,3.89,3.89,0,0,0-1.92-.81q-2.22,0-4.34,3.74Z"/><path class="cls-1" d="M696.84,220.42v-31.8h-5.55V186.8h5.55v-13l18.78-4.64V186.8h13.12v1.82H715.62v34a18.69,18.69,0,0,0,1,7q1,2.22,4,2.22a6.55,6.55,0,0,0,5.3-3,17.54,17.54,0,0,0,3-8.28l1.72.2q-.81,7-4.44,11.05t-12,4.09q-8.38,0-12.82-3.33T696.84,220.42Z"/><path class="cls-1" d="M738.58,229.15q-6.51-6.71-6.51-18.68t7.32-18.32q7.32-6.36,18.63-6.36,22.92,0,22,23H751.56v3.94q0,9.9,2.52,14.94t8.78,5q11.71,0,15.35-12.52l1.82.3a20.87,20.87,0,0,1-6.92,11.31q-5,4-15,4Q745.1,235.86,738.58,229.15Zm13.07-22.36h10.4v-4.95q0-8.18-1-11.16a3.78,3.78,0,0,0-3.84-3q-2.88,0-4.24,3.18t-1.36,11Z"/><path class="cls-1" d="M783.66,186.8H808v9.29q3.33-10.3,14.69-10.3t13.78,10.9q3.53-10.9,14.84-10.9,14.84,0,14.84,16.86V233h5.65v1.82h-28V233h3.53V200.22q0-7.67-1.31-9a2.19,2.19,0,0,0-1.62-.61q-2.93,0-5.15,3.94a20.15,20.15,0,0,0-2.22,10V233h3.63v1.82H814.75V233h3.53V200.22q0-7.67-1.31-9a2.19,2.19,0,0,0-1.62-.61q-2.83,0-5.1,4.29A21.64,21.64,0,0,0,808,205.17V233h3.63v1.82h-28V233h5.55V188.62h-5.55Z"/><path class="cls-1" d="M225.31,199v46.35H129V235.07h86.79V199Z"/><path class="cls-1" d="M135.63,189.13a7.72,7.72,0,0,1-5.36-1.86,6.26,6.26,0,0,1-2.06-4.88,6.81,6.81,0,0,1,2-5,7.34,7.34,0,0,1,5.43-2,6.7,6.7,0,0,1,5.16,2,7.08,7.08,0,0,1,1.86,5,6.47,6.47,0,0,1-1.93,4.88A7,7,0,0,1,135.63,189.13Zm20.91-1.79v-9.9h68.77v9.9Z"/><path class="cls-1" d="M190.93,162.17q-18.57,0-27.3-6.4t-8.73-18.22q0-12.65,8.94-18.64t27.1-6q18.71,0,27.37,6.47T227,137.55q0,12.66-8.94,18.64T190.93,162.17Zm0-10.32a73,73,0,0,0,11-.76,30.14,30.14,0,0,0,8.53-2.47,14.37,14.37,0,0,0,5.57-4.47,10.94,10.94,0,0,0,2-6.6,11.57,11.57,0,0,0-6.4-10.73q-6.39-3.57-20.7-3.58A73.79,73.79,0,0,0,180,124a30.33,30.33,0,0,0-8.6,2.48,14.43,14.43,0,0,0-5.57,4.47,11,11,0,0,0-2,6.6q0,7,6.47,10.66T190.93,151.86Z"/><path class="cls-1" d="M225.31,64.52h-42q-10.31,0-14.92,2.41t-4.61,8.6a12.86,12.86,0,0,0,3.3,9.08,19.4,19.4,0,0,0,8.11,5.23h50.07v9.9H156.54V92.58l7.29-1.79v-.41a22.12,22.12,0,0,1-6.33-7.08,20.75,20.75,0,0,1-2.61-10.66,22.49,22.49,0,0,1,1.24-7.77,12.4,12.4,0,0,1,4.2-5.64,20.72,20.72,0,0,1,7.91-3.44,55.85,55.85,0,0,1,12.52-1.17h44.56Z"/><path class="cls-2" d="M400.92,264.92a59.29,59.29,0,0,1-10.79,8.28,9.91,9.91,0,0,1-11.31.06c-6.2-3.81-11.63-8.57-17-13.39-4.49-4-6.6-4.35-11.83-1.29-3.46,2-6.73,4.38-10,6.7-2.58,1.83-4.82,1.61-7.27-.35-5.92-4.74-9.43-11.22-13.1-17.6a30.48,30.48,0,0,1-2.2-4.28c-1.28-3.37-2.8-3.16-5.17-.87-4.66,4.5-4.86,4.5-8.86-.58-14.48-18.36-21.1-38.78-16.39-62.28,1.63-8.13,2.75-16.37,3.75-24.61.64-5.27-.74-6.25-5.9-5.12l-1.17.27c-7.25,1.68-7.62,1.3-6.24-6,2.84-14.93,9.67-28.29,16.3-41.74,1.66-3.36,3.35-6.71,5.13-10,1.58-2.92.75-4.85-2.21-6-2.36-.93-4.72-1.88-7.14-2.64s-2.59-1.94-1.44-3.89a18.49,18.49,0,0,1,5.25-5.45c7.12-5.21,15.4-8,23.39-11.42,1.55-.66,4.08-.92,4.18-2.63.13-2.09-2.49-2.48-4.1-3.29-3.22-1.62-6.53-3.08-9.83-4.55-2.63-1.17-2.44-2.49-.25-3.89,3.94-2.52,8.42-3.38,13-3.83,4.12-.41,8.27-.67,12.41-.79,2.41-.07,3.2-1.12,2.52-3.28-.93-2.93-2-5.82-3-8.72-1.39-4-.74-4.78,3.53-4.06a31.9,31.9,0,0,1,11.5,4.59c4.66,2.9,9.16,6,13.76,9,.83.54,1.64,1.72,2.78,1s.81-1.92.74-3c-.24-3.6-.61-7.2-.83-10.8-.07-1.12-.73-2.61.57-3.3s2.59,0,3.8.64a23.6,23.6,0,0,1,7.25,6.84c2.23,3,4.22,6.19,6.45,9.21,2.86,3.87,3.63,3.89,6.43.12,2.47-3.33,4.78-6.79,7.21-10.15a18.3,18.3,0,0,1,2.43-2.67c2.25-2.07,4.76-5.31,7.74-3.83,2.4,1.19.41,4.85.42,7.41,0,3.25-2.12,7.63.64,9.36,2,1.25,5-2.67,7.5-4.34,5.12-3.43,10.14-7,16.06-9a26.44,26.44,0,0,1,4.65-1.22c3.84-.55,4.38.15,3.12,3.77-1,2.9-2.13,5.78-3.09,8.7-.83,2.52,0,3.68,2.85,3.67a81.86,81.86,0,0,1,19.83,2.29c2.71.67,6.34,1.47,6.65,4.3.24,2.19-3.55,2.61-5.59,3.7-2.7,1.46-5.59,2.57-8.32,4-2.46,1.28-2.42,2.54.23,3.68,6.15,2.64,12.3,5.26,18.37,8.07a32.26,32.26,0,0,1,11.09,7.82c3.13,3.59,2.79,4.84-1.58,6.39-10.13,3.59-10.09,3.58-5.23,13.19,6.95,13.73,14.2,27.34,17.89,42.44a43.86,43.86,0,0,1,1.43,9.09c.06,2.07-.69,2.64-2.64,2.06-1.53-.46-3.12-.73-4.69-1.09-5.52-1.28-6.4-.63-6.64,4.88-1.88,0-2.68-1.62-3.77-2.71q-20.56-20.49-41.06-41c-1-1-1.84-2.32-3.35-2.76l.1,0-1-.85c-.51-.6-1.06-1.18-1.53-1.81C421.68,98,414.4,94.24,405,95.93c-11.87,2.14-23.63,5.95-35.65.83a11.34,11.34,0,0,0-2.32-.59c-13-2.47-22.79,2.4-28.57,14.35-4.84,10-4.84,20.69-4.13,31.41,1.06,16.08,10.22,29,16.94,42.89.14.29.66.39,1,.58.16,3,.19,6.1.5,9.13.74,7,2.39,13.64,9,17.71-.65,2,.22,3.55,1.56,4.93-2.54,3.38-2.41,6.64.46,9.76a16,16,0,0,0,4.85,4.11c1.43,1.58,2.83,3.19,4.3,4.72C382.29,245.47,392.45,254.38,400.92,264.92Z"/><path class="cls-2" d="M429.69,108.1c1.51.44,2.33,1.74,3.35,2.76q20.54,20.51,41.06,41c1.09,1.09,1.89,2.68,3.77,2.71,1.78,12.84,4.37,25.56,5.17,38.55,1.2,19.67-7.66,35.37-19.13,50.16-2.14,2.76-3.9,2.37-6.19.11-4.26-4.19-4.27-4.06-7.11,1.28-3.59,6.74-7.18,13.52-12.85,18.82-4.29,4-5.56,4-10.47.71-3.33-2.23-6.43-4.83-10.09-6.56-3.38-1.6-6.39-1.39-9.23,1.29-2.23,2.11-4.68,4-7,6-8.47-10.54-18.63-19.45-28-29.17-1.47-1.54-2.87-3.15-4.3-4.72,1.58-2.65,3-3.34,4.16.3a14.77,14.77,0,0,0,1.53,2.81c1,1.71,2.15,2.48,3.53.31,1.27-2,2.6-1.73,3.57.14,2.19,4.22,4,3.17,6-.16.48-.82,1.49-2.3,2.46-1.14,4.14,4.92,4.61,0,5.91-2.16,1.08-1.79,1.65-4.11,4-1.08.49.64,1.18.18,1.79-.15,4.83-2.65,6.36-7.56,3.89-12.54,1.17-1.49,2.35-3,1.46-5.05,4.89-3,7.19-7.67,8.37-13.09.89-4.09.71-8.24.94-12.37,2.34-4.46,4.49-9,7-13.35,7.54-12.78,11.83-26.33,11.46-41.35A74.14,74.14,0,0,0,429.69,108.1Z"/><path class="cls-3" d="M429.69,108.1a74.14,74.14,0,0,1,5.05,24c.37,15-3.92,28.58-11.46,41.35-2.55,4.33-4.71,8.89-7,13.35-1.92-13.86-5.73-27-15.1-37.9.79,9.71,4,19.12,2.89,29-1.21.77-1.78,2.7-3.44,2.51-6.45-.75-12.81,1.47-19.18.61a39.24,39.24,0,0,0-10-.52c-2.78.34-5-.35-6.67-2.59-1.27-9.81,2.29-19.17,2.92-28.84a43.29,43.29,0,0,0-8.58,13c-3.27,7.48-5,15.4-6.77,23.29-.34-.19-.86-.29-1-.58-6.72-13.87-15.88-26.81-16.94-42.89-.71-10.72-.71-21.42,4.13-31.41,5.78-11.94,15.61-16.82,28.57-14.35a11.34,11.34,0,0,1,2.32.59c12,5.12,23.78,1.32,35.65-.83,9.35-1.69,16.63,2.09,22.24,9.5.48.63,1,1.21,1.53,1.81l1,.85Zm-16.13,20.08a10.91,10.91,0,0,0-10.71,13.6c.17.71.58,2.05,1.38,1.25,2.31-2.32,4.74-.72,7.15-.72,3.7,0,6.77-1.36,8.56-4.84.84-1.64,1.45-3.35,3.23-4.42,2.23-1.34,1-2.43-.66-3C419.6,129.18,416.7,128.08,413.56,128.19Zm-58.62,0a15.3,15.3,0,0,0-2.39.19c-1.56.33-3.1.76-4.63,1.23-4.06,1.25-4,1.22-1.08,4.43a18.43,18.43,0,0,1,2,3.42,9,9,0,0,0,9.71,4.71c1.93-.3,3.84-1.16,5.62.63,1.17,1.17,1.54,0,1.78-.95A11,11,0,0,0,354.94,128.18Z"/><path class="cls-4" d="M352.31,185.38c1.79-7.9,3.5-15.81,6.77-23.29a43.29,43.29,0,0,1,8.58-13c-.62,9.66-4.19,19-2.92,28.84-1,3.82.71,6.52,3.68,8.51,2.1,1.4,4.48,2.38,6.67,3.65,3.78,2.2,6.92,5,8.33,9.34.69,2.11,1.26,4.82-.56,6-6.33,4.17-12.32,9.93-21.06,6.79-6.6-4.07-8.25-10.69-9-17.71C352.5,191.49,352.47,188.43,352.31,185.38Z"/><path class="cls-4" d="M405.46,217.36c2.47,5,.94,9.9-3.89,12.54-.6.33-1.3.79-1.79.15-2.31-3-2.88-.72-4,1.08-1.3,2.17-1.78,7.08-5.91,2.16-1-1.16-2,.33-2.46,1.14-2,3.34-3.8,4.39-6,.16-1-1.87-2.3-2.14-3.57-.14-1.38,2.17-2.51,1.4-3.53-.31a14.77,14.77,0,0,1-1.53-2.81c-1.19-3.63-2.58-2.95-4.16-.3a16,16,0,0,1-4.85-4.11c-2.87-3.12-3-6.38-.46-9.76a5.49,5.49,0,0,0,4.13-1.06,15.79,15.79,0,0,1,6.21-2.65c9.67-1.16,19.39-2.52,28.34,3.08A5.52,5.52,0,0,0,405.46,217.36Z"/><path class="cls-5" d="M405.46,217.36a5.52,5.52,0,0,1-3.43-.84c-8.94-5.6-18.66-4.24-28.34-3.08a15.79,15.79,0,0,0-6.21,2.65,5.49,5.49,0,0,1-4.13,1.06c-1.33-1.39-2.2-2.92-1.55-4.93,8.74,3.15,14.74-2.62,21.07-6.79,1.83-1.2,1.25-3.91.56-6-1.41-4.33-4.55-7.15-8.33-9.34-2.19-1.27-4.57-2.25-6.67-3.65-3-2-4.72-4.7-3.68-8.51,1.69,2.24,3.89,2.93,6.67,2.59a39.24,39.24,0,0,1,10,.52c6.38.86,12.74-1.37,19.18-.61,1.66.19,2.23-1.74,3.44-2.51,1.09,3.82-.69,6.51-3.64,8.51-2.09,1.41-4.47,2.39-6.66,3.65-3.92,2.25-7.12,5.19-8.48,9.69-.64,2.12-1,4.77.89,6,6.32,3.93,12.23,9.61,20.79,6.6C407.81,214.39,406.63,215.87,405.46,217.36Zm-27.55-34.64c-1.43.23-3-.55-3.48.93-.56,1.68,1,2.34,2.2,2.83,2.89,1.21,5.52,2.57,6.7,5.8.4,1.1,1.62,1.34,2.06.14,1.23-3.39,4-4.77,7-6,1.08-.46,2.42-1.15,2.06-2.57-.4-1.58-2-1.16-3-1C386.76,183.74,382.18,184.21,377.91,182.72Z"/><path class="cls-6" d="M429.79,108.08l-1-.85Z"/><path class="cls-4" d="M406.92,212.31c-8.56,3-14.47-2.67-20.79-6.6-1.92-1.19-1.53-3.85-.89-6,1.36-4.49,4.56-7.43,8.48-9.69,2.2-1.26,4.57-2.24,6.66-3.65,3-2,4.73-4.69,3.64-8.51,1.1-9.84-2.09-19.24-2.89-29,9.36,10.94,13.18,24,15.1,37.9-.23,4.13,0,8.28-.94,12.37C414.11,204.64,411.81,209.28,406.92,212.31Z"/><path class="cls-5" d="M413.55,128.19c3.14-.11,6,1,9,1.91,1.63.52,2.89,1.61.66,3-1.77,1.07-2.38,2.78-3.23,4.42-1.79,3.48-4.86,4.85-8.56,4.84-2.41,0-4.84-1.61-7.15.72-.8.8-1.21-.54-1.38-1.25A10.9,10.9,0,0,1,413.55,128.19Zm-3.83,2.95c-1.85,1.83-4.52,3.11-2.34,5.94a5.5,5.5,0,0,0,6.51,1.77,6.41,6.41,0,0,0,4.57-5.54c.21-1.92-1.24-2.51-2.82-2.63A20.93,20.93,0,0,0,409.73,131.14Z"/><path class="cls-5" d="M354.94,128.18a11,11,0,0,1,11,13.67c-.24.9-.61,2.12-1.78.95-1.78-1.79-3.69-.92-5.62-.63a9,9,0,0,1-9.71-4.71,18.43,18.43,0,0,0-2-3.42c-2.93-3.21-3-3.18,1.08-4.43,1.52-.47,3.07-.9,4.63-1.23A15.3,15.3,0,0,1,354.94,128.18Zm.15,2.42c-1.72.27-4.38-.67-4.79,2.51-.35,2.73,3.23,6.22,6.35,6.06,2.43-.13,5-.68,5.47-3.68C362.48,133,359.12,130.74,355.08,130.6Z"/><path class="cls-7" d="M377.91,182.72c4.27,1.49,8.86,1,13.47.12,1-.2,2.65-.63,3,1,.36,1.42-1,2.12-2.06,2.57-3,1.27-5.76,2.65-7,6-.44,1.2-1.66,1-2.06-.14-1.17-3.23-3.8-4.59-6.7-5.8-1.16-.49-2.76-1.15-2.2-2.83C374.92,182.17,376.47,183,377.91,182.72Z"/><path class="cls-8" d="M409.73,131.14a15.4,15.4,0,0,1,5.93-.46c1.58.12,3,.71,2.82,2.63a6.41,6.41,0,0,1-4.57,5.54,5.5,5.5,0,0,1-6.51-1.77C405.21,134.25,407.88,133,409.73,131.14Z"/><path class="cls-8" d="M355.08,130.6c4,.14,7.39,2.43,7,4.89-.46,3-3,3.55-5.47,3.68-3.11.17-6.7-3.32-6.35-6.06C350.7,129.93,353.37,130.87,355.08,130.6Zm4.46,3.2a1.72,1.72,0,0,0-1.83-1.66,1.61,1.61,0,0,0-1.8,1.62,1.57,1.57,0,0,0,1.94,1.81A1.8,1.8,0,0,0,359.54,133.8Z"/><path class="cls-5" d="M359.54,133.8a1.8,1.8,0,0,1-1.7,1.77,1.57,1.57,0,0,1-1.94-1.81,1.61,1.61,0,0,1,1.8-1.62A1.72,1.72,0,0,1,359.54,133.8Z"/><path class="cls-5" d="M413.35,133.11a1.8,1.8,0,0,1-1.7,1.77,1.57,1.57,0,0,1-1.94-1.81,1.61,1.61,0,0,1,1.8-1.62A1.72,1.72,0,0,1,413.35,133.11Z"/><path class="cls-9" d="M429.69,108.1c1.51.44,2.33,1.74,3.35,2.76q20.54,20.51,41.06,41c1.09,1.09,1.89,2.68,3.77,2.71,1.78,12.84,4.37,25.56,5.17,38.55,1.2,19.67-7.66,35.37-19.13,50.16-2.14,2.76-3.9,2.37-6.19.11-4.26-4.19-4.27-4.06-7.11,1.28-3.59,6.74-7.18,13.52-12.85,18.82-4.29,4-5.56,4-10.47.71-3.33-2.23-6.43-4.83-10.09-6.56-3.38-1.6-6.39-1.39-9.23,1.29-2.23,2.11-4.68,4-7,6-8.47-10.54-18.63-19.45-28-29.17-1.47-1.54-2.87-3.15-4.3-4.72,1.58-2.65,3-3.34,4.16.3a14.77,14.77,0,0,0,1.53,2.81c1,1.71,2.15,2.48,3.53.31,1.27-2,2.6-1.73,3.57.14,2.19,4.22,4,3.17,6-.16.48-.82,1.49-2.3,2.46-1.14,4.14,4.92,4.61,0,5.91-2.16,1.08-1.79,1.65-4.11,4-1.08.49.64,1.18.18,1.79-.15,4.83-2.65,6.36-7.56,3.89-12.54,1.17-1.49,2.35-3,1.46-5.05,4.89-3,7.19-7.67,8.37-13.09.89-4.09.71-8.24.94-12.37,2.34-4.46,4.49-9,7-13.35,7.54-12.78,11.83-26.33,11.46-41.35A74.14,74.14,0,0,0,429.69,108.1Z"/></svg>