<?xml version="1.0" encoding="utf-8"?>
<!-- Generator: Adobe Illustrator 21.1.0, SVG Export Plug-In . SVG Version: 6.00 Build 0)  -->
<svg version="1.1" id="Layer_1" xmlns="http://www.w3.org/2000/svg" xmlns:xlink="http://www.w3.org/1999/xlink" x="0px" y="0px"
	 viewBox="0 0 650 75" style="enable-background:new 0 0 650 75;" xml:space="preserve">
<style type="text/css">
	.st0{fill:#53C0A2;}
</style>
<g>
	<path class="st0" d="M0,3.7h26.5v1.6h-7.8v48.2h2.6c4.2,0,7.5-1.3,10-3.8c2.5-2.5,5-6.5,7.5-11.8h1.5L39,55.2H0v-1.6h4.3V5.3H0V3.7
		z"/>
	<path class="st0" d="M42.7,20.2h18v33.7h4.1v1.3H43v-1.3h4V21.5h-4.3V20.2z M53.8,15.1c-2.6,0-4.4-0.7-5.6-2
		c-1.1-1.3-1.7-3-1.7-4.9s0.6-3.6,1.8-4.9c1.2-1.3,3-1.9,5.5-1.9s4.3,0.6,5.6,1.7c1.3,1.2,1.9,2.8,1.9,4.9s-0.6,3.8-1.8,5.1
		C58.3,14.5,56.4,15.1,53.8,15.1z"/>
	<path class="st0" d="M71.6,51.2c-3.1-3.1-4.7-7.6-4.7-13.5c0-5.9,1.7-10.4,5-13.5c3.4-3.2,8.1-4.7,14.2-4.7
		c6.1,0,10.6,1.5,13.6,4.4c3,2.9,4.5,7.4,4.5,13.3c0,12.5-6.2,18.8-18.7,18.8C79.4,55.9,74.8,54.4,71.6,51.2z M90.1,40.7v-6.3
		c0-4.8-0.3-8.2-0.8-10.4s-1.7-3.3-3.6-3.3c-1.1,0-1.9,0.3-2.6,0.9c-0.7,0.6-1.1,1.6-1.4,3.1c-0.4,2.2-0.7,5.6-0.7,10.1v5.7
		c0,5.3,0.2,8.6,0.5,9.6c0.3,1.1,0.6,2,1,2.6c0.5,1.2,1.6,1.8,3.2,1.8c1.9,0,3.2-1.1,3.8-3.3C89.9,49.7,90.1,46.2,90.1,40.7z"/>
	<path class="st0" d="M106.4,20.2h17.7v6.8c0.8-2.3,2-4.1,3.6-5.4c1.6-1.4,4.1-2.1,7.4-2.1c7.6,0,11.4,4.1,11.4,12.3v22.1h4.1v1.3
		h-20.8v-1.3h3V30c0-2.9-0.2-4.8-0.6-5.7c-0.4-0.9-1.1-1.3-2.1-1.3c-1.6,0-3,1-4.2,3.1c-1.2,2.1-1.8,4.6-1.8,7.5v20.3h3.2v1.3h-20.9
		v-1.3h4V21.5h-4V20.2z"/>
	<path class="st0" d="M216.5,28.6c0,10.1-2.8,17.1-8.5,21.1c-5.2,3.7-12.4,5.5-21.6,5.5h-20.8v-1.4h4.9V5.1h-4.9V3.7h22.7
		c9.4,0,16.5,1.9,21.2,5.8S216.5,19.7,216.5,28.6z M184.8,53.8h2.8c5,0,8.5-1.8,10.6-5.3c2.1-3.5,3.2-9.4,3.2-17.6v-4.3
		c0-11-2.1-17.7-6.3-19.9c-2-1.1-4.9-1.6-8.5-1.6h-1.8V53.8z"/>
	<path class="st0" d="M225.4,51c-3.2-3.3-4.7-7.8-4.7-13.6c0-5.8,1.8-10.3,5.3-13.3c3.6-3.1,8.1-4.6,13.6-4.6
		c11.1,0,16.5,5.6,16,16.8h-20.7v2.9c0,4.8,0.6,8.4,1.8,10.9c1.2,2.5,3.4,3.7,6.4,3.7c5.7,0,9.4-3,11.2-9.1l1.3,0.2
		c-0.9,3.5-2.6,6.3-5,8.2c-2.4,2-6.1,2.9-10.9,2.9C233.3,55.9,228.6,54.3,225.4,51z M234.9,34.7h7.6v-3.6c0-4-0.2-6.7-0.7-8.1
		c-0.5-1.4-1.4-2.2-2.8-2.2s-2.4,0.8-3.1,2.3c-0.7,1.5-1,4.2-1,8V34.7z"/>
	<path class="st0" d="M259.2,55.9V42.8h0.9c1.3,4.3,3,7.3,5.1,9c2.2,1.7,4.9,2.6,8.1,2.6c5,0,7.5-1.6,7.5-4.8c0-1.4-0.6-2.4-1.8-3.1
		c-1.9-1.1-4.4-1.9-7.4-2.5c-3.3-0.9-6.1-2.1-8.4-3.5c-2.7-1.8-4-4.6-4-8.4s1.2-6.9,3.5-9.2c2.4-2.3,5.5-3.4,9.4-3.4
		c2.4,0,4.9,0.6,7.4,1.7c0.9,0.4,1.6,0.6,2.1,0.6c0.5,0,0.9-0.2,1.3-0.5c0.3-0.3,0.8-1,1.3-1.9h0.8v11.2h-0.9
		c-2.5-6.4-6.4-9.6-11.6-9.6c-2.3,0-4,0.4-5.1,1.2c-1.1,0.8-1.7,1.8-1.7,3.1c0,0.7,0.2,1.3,0.5,1.7c0.3,0.4,0.6,0.7,0.8,0.9
		c0.2,0.2,0.5,0.4,1,0.6c0.4,0.2,0.8,0.4,1.1,0.5c0.3,0.1,0.7,0.3,1.4,0.5c0.6,0.2,1.1,0.3,1.4,0.4c3.3,0.8,5.7,1.6,7.2,2.2
		c1.5,0.6,2.9,1.4,4.2,2.2c2.7,1.9,4,4.9,4,9c0,4.1-1.2,7.3-3.7,9.4c-2.5,2.1-5.8,3.2-10.1,3.2c-3,0-6-0.7-8.8-2.1
		c-0.6-0.4-1.1-0.6-1.4-0.6c-1.1,0-2.1,0.9-3.2,2.7H259.2z"/>
	<path class="st0" d="M289.1,20.2h18v33.7h4.1v1.3h-21.8v-1.3h4V21.5h-4.3V20.2z M300.2,15.1c-2.6,0-4.4-0.7-5.6-2
		c-1.1-1.3-1.7-3-1.7-4.9s0.6-3.6,1.8-4.9c1.2-1.3,3-1.9,5.5-1.9c2.5,0,4.3,0.6,5.6,1.7c1.3,1.2,1.9,2.8,1.9,4.9s-0.6,3.8-1.8,5.1
		C304.7,14.5,302.8,15.1,300.2,15.1z"/>
	<path class="st0" d="M342.2,16.4l2.1-1.3c0.3-1.5-0.3-2.3-1.8-2.3c-2.1,0-3.2,1.6-3.2,4.9c0,1.3,0.2,2.7,0.5,4.4
		c3.7,2.5,5.6,5.7,5.6,9.6c0,3.9-1.3,6.9-4,9.1c-2.7,2.2-6.3,3.2-11,3.2c-1.9,0-3.9-0.2-6-0.6c-2.2,1.4-3.2,2.4-3.2,3.1
		c0,0.7,1.6,1,4.7,1h7.5c11.1,0,16.7,4,16.7,12c0,4.3-1.7,7.7-5,10.3c-3.4,2.5-8.6,3.8-15.7,3.8c-12.1,0-18.2-2.6-18.2-7.9
		c0-2.8,1.9-4.8,5.7-5.9l4.4,2c-0.4,1.4-0.6,2.8-0.6,4c0,4.2,3.1,6.3,9.4,6.3c3.8,0,6.8-0.7,8.8-2.1c2.1-1.4,3.1-3.2,3.1-5.3
		c0-2.1-0.6-3.5-1.9-4.2c-1.3-0.7-3.7-1.1-7.5-1.1h-7.1c-4,0-6.8-0.7-8.5-2c-1.7-1.3-2.6-3-2.6-4.9s0.6-3.6,1.8-4.9
		c1.2-1.3,3.4-2.9,6.5-4.8c-5.7-1.6-8.5-5.3-8.5-11.2c0-3.7,1.3-6.6,4-8.9c2.6-2.3,6.6-3.4,11.9-3.4c3.2,0,5.9,0.6,8.2,1.8
		c-0.3-1.3-0.4-2.5-0.4-3.6c0-2.7,0.7-4.7,2.2-6c1.5-1.2,3.1-1.8,4.9-1.8c1.8,0,3.3,0.5,4.4,1.4c1.1,1,1.7,2.3,1.7,3.9
		s-0.4,2.9-1.3,3.7c-0.9,0.8-1.9,1.2-3.2,1.2s-2.3-0.3-3.1-1C342.7,18.5,342.3,17.6,342.2,16.4z M326.6,30.1v4
		c0,3.3,0.3,5.5,0.8,6.7c0.6,1.2,1.4,1.8,2.6,1.8c1.2,0,2-0.6,2.5-1.7c0.5-1.1,0.8-3.5,0.8-7.1v-3.6c0-3.8-0.2-6.3-0.7-7.5
		c-0.5-1.2-1.3-1.8-2.5-1.8c-1.2,0-2,0.6-2.6,1.9C326.9,23.9,326.6,26.4,326.6,30.1z"/>
	<path class="st0" d="M351.2,20.2H369v6.8c0.8-2.3,2-4.1,3.6-5.4c1.6-1.4,4.1-2.1,7.4-2.1c7.6,0,11.4,4.1,11.4,12.3v22.1h4.1v1.3
		h-20.8v-1.3h3V30c0-2.9-0.2-4.8-0.6-5.7S376,23,374.9,23c-1.6,0-3,1-4.2,3.1c-1.2,2.1-1.8,4.6-1.8,7.5v20.3h3.2v1.3h-20.9v-1.3h4
		V21.5h-4V20.2z"/>
	<path class="st0" d="M432.8,54.4c2.5,0,4.6-0.7,6.5-2c1.9-1.3,2.8-3.3,2.8-6s-1-4.7-3.1-6.1s-4.9-2.7-8.7-3.7
		c-3.7-1.1-6.5-2-8.2-2.8c-1.7-0.8-3.3-1.8-4.8-3.1c-3-2.5-4.6-6.5-4.6-11.8c0-4.4,1.6-8.1,4.7-11.2c3.1-3.1,7.4-4.7,12.8-4.7
		c2.6,0,5.3,0.4,8.1,1.1c2.8,0.8,4.6,1.1,5.3,1.1c0.7,0,1.3-0.5,1.8-1.5h0.8l0.5,14.9h-1.2c-2.4-4.3-4.8-7.7-7.4-10.3
		c-2.6-2.6-5.4-3.9-8.4-3.9c-3,0-5.4,0.7-7,2.1s-2.5,3.3-2.5,5.6s1,4.1,3,5.4c2,1.3,4.4,2.3,7.3,3.1c2.9,0.8,4.8,1.3,5.7,1.6
		c0.9,0.3,2,0.7,3.4,1.2c1.3,0.5,2.5,1.1,3.3,1.6c0.9,0.6,1.8,1.3,2.7,2.1c1,0.9,1.7,1.8,2.2,2.8c1.3,2.4,2,5.1,2,8.4
		c0,5.3-1.7,9.5-5,12.8c-3.3,3.2-7.7,4.8-13.1,4.8c-2.8,0-6-0.4-9.6-1.1c-3.6-0.7-5.6-1.1-6-1.1c-0.7,0-1.3,0.7-2,2.2h-1l-0.7-17.5
		h1.3c2.2,4.3,4.9,8,8.3,11.2C425.5,52.8,429.1,54.4,432.8,54.4z"/>
	<path class="st0" d="M450.4,21.5v-1.3h21.3v1.3h-4l8,24.4l8.5-24.4h-4.9v-1.3h10.4v1.3h-3.7l-13.7,39.6c-1.6,4.6-3.4,7.8-5.4,9.7
		c-2,1.8-4.5,2.8-7.4,2.8s-5.2-0.7-6.8-2c-1.7-1.3-2.5-3-2.5-5.1s0.5-3.6,1.6-4.7c1.1-1.1,2.5-1.6,4.3-1.6c4.1,0,6.1,1.7,6.1,5.1
		c0,0.7-0.1,1.6-0.4,2.6h-2.6c-0.4,1.1-0.4,2.1-0.1,2.8c0.3,0.7,1,1.1,2,1.1c2,0,3.8-1,5.4-3c1.6-2,3.1-5,4.5-9.1l1.6-4.6H466
		l-12.6-33.7H450.4z"/>
	<path class="st0" d="M489.4,55.9V42.8h0.9c1.3,4.3,3,7.3,5.1,9c2.2,1.7,4.9,2.6,8.1,2.6c5,0,7.5-1.6,7.5-4.8c0-1.4-0.6-2.4-1.8-3.1
		c-1.9-1.1-4.4-1.9-7.4-2.5c-3.3-0.9-6.1-2.1-8.4-3.5c-2.7-1.8-4-4.6-4-8.4s1.2-6.9,3.5-9.2c2.4-2.3,5.5-3.4,9.4-3.4
		c2.4,0,4.9,0.6,7.4,1.7c0.9,0.4,1.6,0.6,2.1,0.6c0.5,0,0.9-0.2,1.3-0.5c0.3-0.3,0.8-1,1.3-1.9h0.8v11.2h-0.9
		c-2.5-6.4-6.4-9.6-11.6-9.6c-2.3,0-4,0.4-5.1,1.2c-1.1,0.8-1.7,1.8-1.7,3.1c0,0.7,0.2,1.3,0.5,1.7c0.3,0.4,0.6,0.7,0.8,0.9
		c0.2,0.2,0.5,0.4,1,0.6c0.4,0.2,0.8,0.4,1.1,0.5c0.3,0.1,0.7,0.3,1.4,0.5c0.6,0.2,1.1,0.3,1.4,0.4c3.3,0.8,5.7,1.6,7.2,2.2
		c1.5,0.6,2.9,1.4,4.2,2.2c2.7,1.9,4,4.9,4,9c0,4.1-1.2,7.3-3.7,9.4c-2.5,2.1-5.8,3.2-10.1,3.2c-3,0-6-0.7-8.8-2.1
		c-0.6-0.4-1.1-0.6-1.4-0.6c-1.1,0-2.1,0.9-3.2,2.7H489.4z"/>
	<path class="st0" d="M522.6,44.7V21.5h-4v-1.3h4v-9.5l13.7-3.4v12.9h9.6v1.3h-9.6v24.8c0,2.3,0.2,4,0.7,5.1
		c0.5,1.1,1.4,1.6,2.9,1.6c1.5,0,2.8-0.7,3.9-2.2c1.1-1.5,1.8-3.5,2.2-6l1.3,0.1c-0.4,3.4-1.5,6.1-3.2,8.1c-1.8,2-4.7,3-8.8,3
		c-4.1,0-7.2-0.8-9.3-2.4C523.7,51.9,522.6,48.9,522.6,44.7z"/>
	<path class="st0" d="M553,51c-3.2-3.3-4.7-7.8-4.7-13.6c0-5.8,1.8-10.3,5.3-13.3c3.6-3.1,8.1-4.6,13.6-4.6c11.1,0,16.5,5.6,16,16.8
		h-20.7v2.9c0,4.8,0.6,8.4,1.8,10.9c1.2,2.5,3.4,3.7,6.4,3.7c5.7,0,9.4-3,11.2-9.1l1.3,0.2c-0.9,3.5-2.6,6.3-5,8.2
		c-2.4,2-6.1,2.9-10.9,2.9C560.9,55.9,556.1,54.3,553,51z M562.5,34.7h7.6v-3.6c0-4-0.2-6.7-0.7-8.1c-0.5-1.4-1.4-2.2-2.8-2.2
		c-1.4,0-2.4,0.8-3.1,2.3c-0.7,1.5-1,4.2-1,8V34.7z"/>
	<path class="st0" d="M585.8,20.2h17.7v6.8c1.6-5,5.2-7.5,10.7-7.5c5.5,0,8.9,2.6,10,7.9c1.7-5.3,5.3-7.9,10.8-7.9
		c7.2,0,10.8,4.1,10.8,12.3v22.1h4.1v1.3h-20.4v-1.3h2.6V30c0-3.7-0.3-5.9-1-6.5c-0.3-0.3-0.7-0.4-1.2-0.4c-1.4,0-2.7,1-3.8,2.9
		c-1.1,1.9-1.6,4.3-1.6,7.3v20.7h2.6v1.3h-18.9v-1.3h2.6V30c0-3.7-0.3-5.9-1-6.5c-0.3-0.3-0.7-0.4-1.2-0.4c-1.4,0-2.6,1-3.7,3.1
		c-1.1,2.1-1.7,4.6-1.7,7.5v20.3h2.6v1.3h-20.4v-1.3h4V21.5h-4V20.2z"/>
</g>
</svg>
