<?xml version="1.0" encoding="utf-8"?>
<!-- Generator: Adobe Illustrator 21.1.0, SVG Export Plug-In . SVG Version: 6.00 Build 0)  -->
<svg version="1.1" id="Layer_1" xmlns="http://www.w3.org/2000/svg" xmlns:xlink="http://www.w3.org/1999/xlink" x="0px" y="0px"
	 viewBox="0 0 650 612" style="enable-background:new 0 0 650 612;" xml:space="preserve">
<style type="text/css">
	.st0{fill:#292D6B;}
	.st1{fill:#E56626;}
	.st2{fill:#3D52A3;}
	.st3{fill:#FEFEFE;}
	.st4{fill:#A84023;}
</style>
<g>
	<path class="st0" d="M2.5,571.3h12.6v31.8h13.5v8.1H2.5V571.3z"/>
	<path class="st0" d="M35,571.3h12.6v39.9H35V571.3z"/>
	<path class="st0" d="M74.9,612c-2.5,0-4.7-0.3-6.6-0.8c-1.9-0.5-3.6-1.3-5.1-2.2c-1.5-0.9-2.7-2.1-3.8-3.4c-1-1.3-1.9-2.7-2.5-4.3
		c-0.6-1.5-1.1-3.1-1.4-4.8c-0.3-1.7-0.4-3.4-0.4-5.2c0-1.7,0.2-3.4,0.5-5.1c0.4-1.7,0.9-3.3,1.6-4.9c0.7-1.5,1.6-3,2.7-4.3
		c1.1-1.3,2.4-2.5,3.8-3.4c1.5-1,3.1-1.7,5-2.3c1.9-0.5,3.9-0.8,6.2-0.8s4.3,0.3,6.2,0.8c1.9,0.5,3.5,1.3,5,2.3
		c1.5,1,2.8,2.1,3.9,3.4c1.1,1.3,2,2.7,2.7,4.3c0.7,1.5,1.3,3.2,1.6,4.9c0.4,1.7,0.5,3.4,0.5,5.1c0,1.7-0.2,3.5-0.5,5.2
		c-0.3,1.7-0.8,3.3-1.4,4.8c-0.6,1.5-1.5,3-2.5,4.3c-1,1.3-2.3,2.4-3.8,3.4c-1.5,1-3.2,1.7-5.1,2.2C79.5,611.7,77.3,612,74.9,612z
		 M67.7,591.3c0,2.3,0.2,4.2,0.5,5.8c0.3,1.6,0.8,2.9,1.4,3.9c0.6,1,1.4,1.8,2.3,2.2c0.9,0.5,1.9,0.7,3,0.7s2.1-0.2,3-0.7
		c0.9-0.5,1.7-1.2,2.3-2.2c0.6-1,1.1-2.3,1.4-3.9c0.3-1.6,0.5-3.5,0.5-5.8s-0.2-4.2-0.5-5.8c-0.3-1.6-0.8-2.9-1.4-4
		c-0.6-1-1.4-1.8-2.3-2.3c-0.9-0.5-1.9-0.7-3-0.7s-2.1,0.2-3,0.7c-0.9,0.5-1.6,1.2-2.3,2.3c-0.6,1-1.1,2.3-1.4,4
		C67.8,587.1,67.7,589.1,67.7,591.3z"/>
	<path class="st0" d="M102.2,571.3h12.2l15.2,20v-20h9.6v39.9h-12.5l-15-21.2v21.2h-9.6V571.3z"/>
	<path class="st0" d="M169,611.2v-39.9h13.9c3.4,0,6.5,0.4,9.2,1.2c2.7,0.8,5,2,6.9,3.6c1.9,1.6,3.3,3.7,4.3,6.1
		c1,2.5,1.5,5.3,1.5,8.6c0,2.5-0.3,4.8-0.8,6.8c-0.5,2-1.3,3.7-2.2,5.2c-0.9,1.5-2.1,2.8-3.4,3.8c-1.3,1-2.8,1.9-4.5,2.6
		c-1.6,0.7-3.4,1.2-5.3,1.5c-1.9,0.3-3.9,0.5-5.9,0.5H169z M181.6,602.2h0.8c1.5,0,2.8-0.1,4-0.4c1.2-0.3,2.2-0.8,3.1-1.6
		c0.9-0.8,1.5-1.9,2-3.4c0.5-1.5,0.7-3.4,0.7-5.8c0-2.2-0.2-4-0.6-5.5c-0.4-1.5-1-2.6-1.8-3.5c-0.8-0.9-1.8-1.5-3-1.9
		c-1.2-0.4-2.5-0.6-4.1-0.6h-1.1V602.2z"/>
	<path class="st0" d="M212.4,571.3h28v7.4h-15.3v8.4h13.5v7.2h-13.5v8.7h15.3v8.1h-28V571.3z"/>
	<path class="st0" d="M278.1,581.6c-0.8-0.3-1.7-0.7-2.7-1c-1-0.3-2.1-0.7-3.2-0.9s-2.3-0.5-3.4-0.7c-1.1-0.2-2.2-0.3-3.2-0.3
		c-1.8,0-3.2,0.2-4.1,0.7c-1,0.5-1.5,1.2-1.5,2.3c0,0.5,0.2,1,0.5,1.3c0.3,0.4,0.8,0.7,1.5,1.1c0.6,0.3,1.4,0.6,2.3,1
		c0.9,0.3,1.9,0.6,3,1l2.1,0.6c1.7,0.5,3.3,1.2,4.7,1.9c1.4,0.7,2.5,1.6,3.5,2.6c0.9,1,1.7,2.2,2.2,3.5c0.5,1.3,0.8,2.8,0.8,4.4
		c0,1.9-0.3,3.7-0.9,5.3c-0.6,1.6-1.6,2.9-2.9,4.1c-1.3,1.1-3,2-5,2.6c-2,0.6-4.5,0.9-7.3,0.9c-2.5,0-5-0.2-7.5-0.6
		c-2.5-0.4-5-1.1-7.5-2.2v-9.3c2.4,1.2,4.8,2.1,7.1,2.7c2.3,0.6,4.5,0.9,6.8,0.9c1.8,0,3.2-0.3,4-0.9c0.8-0.6,1.3-1.4,1.3-2.4
		c0-0.6-0.2-1.2-0.5-1.6c-0.3-0.4-0.8-0.9-1.5-1.2c-0.7-0.4-1.6-0.8-2.7-1.1c-1.1-0.4-2.5-0.8-4-1.3c-1.6-0.5-3-1.1-4.4-1.8
		c-1.3-0.7-2.5-1.6-3.5-2.6c-1-1-1.7-2.2-2.3-3.5c-0.6-1.3-0.8-2.9-0.8-4.6c0-1.8,0.3-3.4,0.9-4.9c0.6-1.5,1.6-2.7,2.8-3.8
		c1.3-1,2.9-1.9,4.9-2.4c2-0.6,4.3-0.9,7-0.9c1.1,0,2.2,0,3.4,0.1c1.2,0.1,2.4,0.2,3.7,0.4c1.3,0.2,2.5,0.4,3.7,0.7
		c1.2,0.3,2.4,0.7,3.5,1.1L278.1,581.6z"/>
	<path class="st0" d="M289,571.3h12.6v39.9H289V571.3z"/>
	<path class="st0" d="M330.9,612c-2.1,0-4-0.2-5.9-0.7c-1.9-0.5-3.6-1.1-5.2-2c-1.6-0.9-3.1-1.9-4.4-3.2c-1.3-1.2-2.4-2.6-3.4-4.2
		c-0.9-1.6-1.7-3.3-2.2-5.1c-0.5-1.8-0.8-3.8-0.8-5.9c0-3,0.6-5.8,1.8-8.3c1.2-2.5,2.9-4.7,5.1-6.5c2.2-1.8,4.8-3.2,7.8-4.2
		c3-1,6.3-1.5,9.9-1.5c1.9,0,4,0.1,6.2,0.4c2.2,0.3,4.3,0.8,6.5,1.4l-1.8,9c-1.9-0.7-3.7-1.2-5.3-1.5c-1.6-0.3-3.1-0.4-4.6-0.4
		c-2,0-3.8,0.3-5.3,0.8c-1.6,0.6-2.9,1.3-4,2.3c-1.1,1-2,2.2-2.6,3.6c-0.6,1.4-0.9,3-0.9,4.7c0,1.9,0.2,3.6,0.6,5.1
		c0.4,1.5,1,2.7,1.8,3.8c0.8,1,1.9,1.8,3.1,2.4c1.3,0.5,2.8,0.8,4.5,0.8h3.6v-8.3l-6.3,0.8v-7h17.2v19.1c-1.4,0.8-2.7,1.5-4,2.1
		c-1.3,0.6-2.6,1-3.8,1.3c-1.3,0.3-2.5,0.6-3.7,0.7C333.4,611.9,332.1,612,330.9,612z"/>
	<path class="st0" d="M354.9,571.3h12.2l15.2,20v-20h9.6v39.9h-12.5l-15-21.2v21.2h-9.6V571.3z"/>
	<path class="st0" d="M450.1,581.6c-0.8-0.3-1.7-0.7-2.7-1c-1-0.3-2.1-0.7-3.2-0.9c-1.1-0.3-2.3-0.5-3.4-0.7
		c-1.1-0.2-2.2-0.3-3.2-0.3c-1.8,0-3.2,0.2-4.1,0.7c-1,0.5-1.5,1.2-1.5,2.3c0,0.5,0.2,1,0.5,1.3c0.3,0.4,0.8,0.7,1.5,1.1
		c0.6,0.3,1.4,0.6,2.3,1c0.9,0.3,1.9,0.6,3,1l2.1,0.6c1.7,0.5,3.3,1.2,4.7,1.9c1.4,0.7,2.5,1.6,3.5,2.6c0.9,1,1.7,2.2,2.2,3.5
		c0.5,1.3,0.8,2.8,0.8,4.4c0,1.9-0.3,3.7-0.9,5.3c-0.6,1.6-1.6,2.9-2.9,4.1c-1.3,1.1-3,2-5,2.6c-2,0.6-4.5,0.9-7.3,0.9
		c-2.5,0-5-0.2-7.5-0.6c-2.5-0.4-5-1.1-7.5-2.2v-9.3c2.4,1.2,4.8,2.1,7.1,2.7c2.3,0.6,4.5,0.9,6.8,0.9c1.8,0,3.2-0.3,4-0.9
		c0.8-0.6,1.3-1.4,1.3-2.4c0-0.6-0.2-1.2-0.5-1.6c-0.3-0.4-0.8-0.9-1.5-1.2c-0.7-0.4-1.6-0.8-2.7-1.1c-1.1-0.4-2.5-0.8-4-1.3
		c-1.6-0.5-3-1.1-4.4-1.8s-2.5-1.6-3.5-2.6c-1-1-1.7-2.2-2.3-3.5c-0.6-1.3-0.8-2.9-0.8-4.6c0-1.8,0.3-3.4,0.9-4.9
		c0.6-1.5,1.6-2.7,2.8-3.8c1.3-1,2.9-1.9,4.9-2.4c2-0.6,4.3-0.9,7-0.9c1.1,0,2.2,0,3.4,0.1c1.2,0.1,2.4,0.2,3.7,0.4
		c1.3,0.2,2.5,0.4,3.7,0.7c1.2,0.3,2.4,0.7,3.5,1.1L450.1,581.6z"/>
	<path class="st0" d="M467.9,611.2v-13.7l-12.3-26.2h14.5l4.9,14.4l4.5-14.4h12.3l-11.1,25.8v14.1H467.9z"/>
	<path class="st0" d="M524.3,581.6c-0.8-0.3-1.7-0.7-2.7-1c-1-0.3-2.1-0.7-3.2-0.9c-1.1-0.3-2.3-0.5-3.4-0.7
		c-1.1-0.2-2.2-0.3-3.2-0.3c-1.8,0-3.2,0.2-4.1,0.7c-1,0.5-1.5,1.2-1.5,2.3c0,0.5,0.2,1,0.5,1.3c0.3,0.4,0.8,0.7,1.5,1.1
		c0.6,0.3,1.4,0.6,2.3,1c0.9,0.3,1.9,0.6,3,1l2.1,0.6c1.7,0.5,3.3,1.2,4.7,1.9c1.4,0.7,2.5,1.6,3.5,2.6c0.9,1,1.7,2.2,2.2,3.5
		c0.5,1.3,0.8,2.8,0.8,4.4c0,1.9-0.3,3.7-0.9,5.3c-0.6,1.6-1.6,2.9-2.9,4.1c-1.3,1.1-3,2-5,2.6c-2,0.6-4.5,0.9-7.3,0.9
		c-2.5,0-5-0.2-7.5-0.6c-2.5-0.4-5-1.1-7.5-2.2v-9.3c2.4,1.2,4.8,2.1,7.1,2.7c2.3,0.6,4.5,0.9,6.8,0.9c1.8,0,3.2-0.3,4-0.9
		c0.8-0.6,1.3-1.4,1.3-2.4c0-0.6-0.2-1.2-0.5-1.6c-0.3-0.4-0.8-0.9-1.5-1.2c-0.7-0.4-1.6-0.8-2.7-1.1c-1.1-0.4-2.5-0.8-4-1.3
		c-1.6-0.5-3-1.1-4.4-1.8c-1.3-0.7-2.5-1.6-3.5-2.6c-1-1-1.7-2.2-2.3-3.5c-0.6-1.3-0.8-2.9-0.8-4.6c0-1.8,0.3-3.4,0.9-4.9
		c0.6-1.5,1.6-2.7,2.8-3.8c1.3-1,2.9-1.9,4.9-2.4c2-0.6,4.3-0.9,7-0.9c1.1,0,2.2,0,3.4,0.1c1.2,0.1,2.4,0.2,3.7,0.4
		c1.3,0.2,2.5,0.4,3.7,0.7c1.2,0.3,2.4,0.7,3.5,1.1L524.3,581.6z"/>
	<path class="st0" d="M539.7,611.2v-30.7h-9v-9.2h30.9v9.2h-9.2v30.7H539.7z"/>
	<path class="st0" d="M566.7,571.3h28v7.4h-15.3v8.4h13.5v7.2h-13.5v8.7h15.3v8.1h-28V571.3z"/>
	<path class="st0" d="M603.9,571.3h11.7l9.9,15.5l9.9-15.5h12v39.9h-12.9v-21.7l-9.3,15.8h-2.7l-9.6-15.8v21.7h-9V571.3z"/>
</g>
<path class="st1" d="M655,434.8c-0.5,0.8-1.2,1.1-2.1,1C653.3,434.9,654.1,434.8,655,434.8z"/>
<g>
	<path class="st0" d="M449.5,3.3C455-0.9,455-0.9,459.7,5c47.1,59.6,94.2,119.2,141.4,178.7c1.9,2.4,1.2,3.8,0,5.9
		c-39.3,65.8-78.5,131.6-117.7,197.4c-22.4,37.6-44.9,75.2-67.3,112.9c-1.4,2.3-3,4-5.5,5.2c-28.8,14.6-57.5,29.3-86.2,44
		c-1.2,0.6-2.3,2.1-3.9,0.9c-5.9-14.7-12-29.5-17.8-44.3c-4.4-11.2-9.8-21.9-13.2-33.5c6.5-7.6,13-15.3,19.6-22.9
		c2.7-3.1,4.1-2.8,5.6,1.1c1.5,3.8,1,7.9,1.4,12c1.4,0.4,2.3-0.5,3.3-1c14.1-6.9,28.1-14.1,42.4-20.7c24.6-11.3,38.1-30.5,41.7-57
		c0.9-6.6,2-13.3,0.8-20.3c-3.2,3.1-6.2,5.8-9,8.7c-6.5,6.8-13.5,7.9-22,3.7c-11-5.4-21.2-12-31.6-18.3c-11-6.7-22.3-6.4-33.1,0.2
		c-10,6.1-20,12-30.7,16.9c-9.7,4.5-19.1,4.6-28.4-0.8c-2.4-1.4-4.8-2.8-7.1-4.1c2.7-4.1,7.6-3.4,11.4-5.2
		c9.6,2.3,18.2-0.7,26.6-5.1c10.5-5.5,21-11.1,31.9-15.7c11.6-4.9,23.3-6,34.6,2.3c8.5,6.3,17.8,11.3,26.8,16.9
		c8.2,5.1,14.3,4,20.1-3.9c14.7-19.9,29.4-39.8,44.2-59.6c1.7-2.3,1.8-3.9,0.5-6.5c-9.3-17.5-18.5-35.1-27.7-52.6
		c-2.1-4-4.1-8.1-6.8-13.3c4.8,2.7,8.5,4.4,11.9,6.7c3.6,2.5,5.9,2.1,8.9-1.2c17.1-18.1,34.5-35.9,51.9-53.7c2.8-2.9,1.9-3.8-1-5.5
		c-9.8-5.7-19.4-11.8-29.3-17.5c-2.7-1.6-3.4-3.3-2.8-6.3c1.7-7.6,3.1-15.3,4.7-22.9c0.6-2.8,0.3-4.5-3.1-5
		c-9.3-1.5-18.5-3.4-27.8-5c-2.3-0.4-4.2-1.2-5.7-3.2c-11.2-14.6-22.5-29.1-33.7-43.6c0.1-1.1,0.9-1.6,1.6-2.3
		c9.1-8.3,18.1-16.7,27.3-25c9.7-8.8,19.6-17.5,29.2-26.5c4-3.7,8.3-7.1,11.3-11.7c0,0,0,0,0,0C448.4,4.4,449.1,4.1,449.5,3.3z"/>
	<path class="st2" d="M289.4,472.2c3.5,11.5,8.8,22.3,13.2,33.5c5.9,14.8,11.9,29.5,17.8,44.3c-19.7-10.3-39.5-20.5-59.2-30.8
		c-5.5-2.9-10.7-6.3-16.4-8.5c-10.7-4.1-16.8-11.9-22.4-21.5C165,389.9,107.3,291,49.5,192c-2.5-4.3-2.4-7,0.7-10.9
		C96,122.4,141.6,63.5,187.2,4.6c2.2-2.8,3.9-3.2,7.3-2C236.3,17.8,278.2,32.8,320,48c3.3,1.2,6.1,1.1,9.3-0.1
		C367.1,33.7,405,19.6,442.9,5.5c1.5-0.6,3.1-0.9,4.7-1.3c-3,4.6-7.4,8-11.3,11.7c-9.6,9-19.5,17.6-29.2,26.5
		c-9.1,8.3-18.1,16.7-27.3,25c-0.7,0.7-1.5,1.2-1.6,2.3c-1.7-0.2-3.1,0.8-4.6,1.4c-14.8,6.6-29.3,14-43.2,22.4
		c-2.5,1.5-4.4,1.7-7.1,0.5c-16.3-7.7-32.7-15.2-49-22.9c-3-1.4-4.7-1.3-6.9,1.5c-8.8,11.3-18,22.3-26.9,33.4
		c-1.6,2-3.4,3.2-5.9,3.9c-12.1,3.1-24.1,6.7-36.2,9.7c-3.7,0.9-4.4,2.5-3.7,6c1.3,6.7,1.9,13.5,3.3,20.2c0.6,2.7-0.2,4.1-2.3,5.6
		c-9.7,6.6-19.1,13.5-28.8,20.1c-2.3,1.6-3,2.6-0.9,5.2c15.3,18.8,30.4,37.8,45.4,56.8c1.8,2.3,3.4,2.7,6.2,1.7
		c8.2-2.7,16.4-5,24.7-7.5c0.2,0.2,0.4,0.5,0.7,0.7c-0.5,1-1,2-1.6,3c-13.4,20.4-26.7,40.7-40.2,61c-2.1,3.2-2.3,5.2,0.1,8.3
		c14.3,18.3,28.3,36.8,42.3,55.4c2.8,3.8,6.1,6.7,10.5,8.4c-3.8,1.8-8.7,1.1-11.4,5.2c-1.3-0.1-1.9-1.8-3.6-1.3c0,0.9,0,1.9,0.1,2.8
		c2.9,28.5,17.1,49.7,41.6,63.9c6.3,3.6,8.6,8.4,8.8,14.9C289.5,457.2,289.4,464.7,289.4,472.2z"/>
	<path class="st3" d="M242.1,227.6c-8.2,2.5-16.5,4.8-24.7,7.5c-2.8,0.9-4.4,0.6-6.2-1.7c-15.1-19-30.2-37.9-45.4-56.8
		c-2.1-2.5-1.4-3.6,0.9-5.2c9.7-6.6,19.2-13.5,28.8-20.1c2.2-1.5,2.9-2.8,2.3-5.6c-1.3-6.7-2-13.5-3.3-20.2c-0.7-3.5,0-5.1,3.7-6
		c12.1-3,24.1-6.5,36.2-9.7c2.5-0.7,4.3-1.9,5.9-3.9c9-11.2,18.1-22.2,26.9-33.4c2.2-2.8,3.9-2.9,6.9-1.5
		c16.3,7.7,32.7,15.2,49,22.9c2.7,1.3,4.6,1.1,7.1-0.5c13.9-8.5,28.4-15.8,43.2-22.4c1.5-0.7,2.8-1.6,4.6-1.4
		c11.2,14.5,22.5,29,33.7,43.6c1.5,2,3.4,2.8,5.7,3.2c9.3,1.6,18.5,3.5,27.8,5c3.4,0.5,3.7,2.2,3.1,5c-1.6,7.6-3.1,15.3-4.7,22.9
		c-0.6,2.9,0,4.7,2.8,6.3c9.8,5.7,19.5,11.8,29.3,17.5c2.8,1.7,3.8,2.6,1,5.5c-17.5,17.8-34.8,35.6-51.9,53.7
		c-3.1,3.2-5.4,3.7-8.9,1.2c-3.3-2.3-7-4-11.9-6.7c2.6,5.2,4.7,9.3,6.8,13.3c9.2,17.6,18.3,35.1,27.7,52.6c1.4,2.5,1.3,4.1-0.5,6.5
		c-14.8,19.8-29.4,39.7-44.2,59.6c-5.8,7.9-12,9-20.1,3.9c-9-5.6-18.3-10.7-26.8-16.9c-11.3-8.4-23-7.2-34.6-2.3
		c-10.9,4.6-21.4,10.2-31.9,15.7c-8.4,4.4-17,7.4-26.6,5.1c-4.4-1.7-7.6-4.6-10.5-8.4c-14-18.5-28-37-42.3-55.4
		c-2.5-3.2-2.3-5.2-0.1-8.3c13.5-20.2,26.8-40.6,40.2-61c0.6-0.9,1.1-2,1.6-3c0.1-0.3,0.3-0.6,0.4-0.9
		C242.8,227.5,242.4,227.5,242.1,227.6z M361.2,188.5c17.5-9.6,34.9-19.2,53.1-29.1c-9.3-4.7-17.7-8.9-26.7-13.5
		c8.5-5.2,16.4-10.1,24.2-14.9c-11.3,1.2-22.1,3.5-32.8,5.7c-1.2,0.3-2,1-2.4,2.2c-5.3,16.3-10.6,32.7-15.9,49
		c-0.2,0.2-0.4,0.4-0.5,0.6C360.4,188.5,360.8,188.5,361.2,188.5z M232.7,130.4c0.3-0.7-0.3-0.7-0.7-0.7c-0.1,0-0.3,0.1-0.4,0.2
		C232,130,232.4,130.2,232.7,130.4c7.3,6,16.2,9.6,24.3,15.7c-9,4.5-17.4,8.8-26.4,13.3c18.3,10.1,35.8,19.8,54.5,30.1
		c-5.4-16.2-10.5-31.2-15.3-46.4c-1.4-4.5-3.5-6.9-8.5-7.5C251.6,134.4,242.4,131,232.7,130.4z M273.6,218.4c-0.3-0.1-0.7-0.2-1-0.2
		c-8.7,10.9-17.3,22-26.1,32.8c-2,2.5-1.8,3.7,0.7,5.7c23.9,19.1,47.7,38.2,71.5,57.4c1.7,1.4,2.9,1.9,4.9,0.2
		c23.9-19.4,47.8-38.7,71.8-57.9c2.4-1.9,2.3-3.1,0.5-5.3c-8.2-10.1-16.1-20.4-24.2-30.6c-0.7-0.9-1.1-2.4-2.9-2.3
		c-0.4,3.9-1,7.7-1.2,11.6c-0.1,2.7-1,4.5-3.3,6c-13.8,9.5-27.5,19.1-41.1,28.8c-2.3,1.6-3.7,1.6-5.9,0c-11.2-8.1-22.3-16.4-34-23.7
		c-7.4-4.6-11.6-9.8-9.7-18.7C273.8,220.9,273.6,219.7,273.6,218.4z M412.6,129.9l0.3,0.2l0-0.3L412.6,129.9z"/>
	<path class="st3" d="M289.4,472.2c0-7.5,0.1-15-0.1-22.4c-0.1-6.5-2.5-11.3-8.8-14.9c-24.6-14.1-38.8-35.4-41.6-63.9
		c-0.1-0.9-0.1-1.9-0.1-2.8c1.7-0.5,2.3,1.2,3.6,1.3c2.4,1.4,4.8,2.8,7.1,4.1c9.3,5.4,18.7,5.3,28.4,0.8
		c10.6-4.9,20.7-10.8,30.7-16.9c10.9-6.6,22.2-6.9,33.1-0.2c10.4,6.3,20.6,12.9,31.6,18.3c8.5,4.2,15.5,3.1,22-3.7
		c2.8-2.9,5.7-5.6,9-8.7c1.2,7,0.1,13.7-0.8,20.3c-3.6,26.4-17.1,45.7-41.7,57c-14.3,6.6-28.3,13.8-42.4,20.7c-1,0.5-1.9,1.3-3.3,1
		c-0.5-4,0.1-8.1-1.4-12c-1.5-3.9-3-4.2-5.6-1.1C302.5,456.9,295.9,464.5,289.4,472.2z"/>
	<path class="st0" d="M273.6,218.4c0,1.2,0.2,2.5,0,3.7c-1.9,8.9,2.3,14.1,9.7,18.7c11.7,7.3,22.8,15.6,34,23.7
		c2.2,1.6,3.6,1.7,5.9,0c13.6-9.7,27.3-19.3,41.1-28.8c2.2-1.5,3.1-3.4,3.3-6c0.2-3.9,0.8-7.7,1.2-11.6c1.8-0.1,2.2,1.4,2.9,2.3
		c8.1,10.2,16,20.5,24.2,30.6c1.8,2.3,1.9,3.4-0.5,5.3c-24,19.2-47.9,38.5-71.8,57.9c-2,1.6-3.2,1.2-4.9-0.2
		c-23.8-19.2-47.6-38.4-71.5-57.4c-2.4-1.9-2.7-3.2-0.7-5.7c8.8-10.8,17.4-21.8,26.1-32.8C272.9,218.3,273.3,218.3,273.6,218.4z"/>
	<path class="st0" d="M232.7,130.4c9.7,0.6,19,4,28.6,5.2c5,0.6,7.1,3,8.5,7.5c4.7,15.1,9.9,30.1,15.3,46.4
		c-18.6-10.3-36.2-20-54.5-30.1c9.1-4.6,17.5-8.8,26.4-13.3C248.9,140,240,136.4,232.7,130.4L232.7,130.4z"/>
	<path class="st0" d="M360.5,187.9c5.3-16.3,10.6-32.7,15.9-49c0.4-1.2,1.2-1.9,2.4-2.2c10.8-2.3,21.6-4.5,32.8-5.7
		c-7.8,4.8-15.7,9.7-24.2,14.9c9,4.6,17.5,8.8,26.7,13.5c-18.1,10-35.6,19.5-53.1,29.1C361,188.3,360.8,188.1,360.5,187.9z"/>
	<path class="st4" d="M232.7,130.3c-0.4-0.1-0.8-0.3-1.2-0.4c0.1-0.1,0.3-0.2,0.4-0.2C232.4,129.7,232.9,129.7,232.7,130.3
		C232.7,130.4,232.7,130.3,232.7,130.3z"/>
	<polygon class="st4" points="412.6,129.9 413,129.8 413,130 	"/>
	<path class="st4" d="M361.2,188.5c-0.4,0-0.8,0-1.1-0.1c0.2-0.2,0.4-0.4,0.5-0.6C360.8,188.1,361,188.3,361.2,188.5z"/>
	<path class="st1" d="M242.1,227.6c0.4-0.1,0.7-0.1,1.1-0.2c-0.1,0.3-0.3,0.6-0.4,0.9C242.5,228.1,242.3,227.9,242.1,227.6z"/>
</g>
<image style="overflow:visible;" width="1088" height="300" xlink:href="../../../Screen Shot 2017-10-21 at 20.33.02.png"  transform="matrix(0.5 0 0 0.5 1034.4929 583.768)">
</image>
</svg>
