<?xml version="1.0" encoding="utf-8"?>
<!-- Generator: Adobe Illustrator 21.1.0, SVG Export Plug-In . SVG Version: 6.00 Build 0)  -->
<svg version="1.1" id="Layer_1" xmlns="http://www.w3.org/2000/svg" xmlns:xlink="http://www.w3.org/1999/xlink" x="0px" y="0px"
	 viewBox="0 0 653 75" style="enable-background:new 0 0 653 75;" xml:space="preserve">
<style type="text/css">
	.st0{fill:#53C0A2;}
</style>
<g>
	<path class="st0" d="M26.5,6.3h24.4v1.5h-7.2v44.5h2.4c3.8,0,6.9-1.2,9.2-3.5c2.3-2.4,4.6-6,7-10.9h1.4l-1.3,15.9h-36v-1.5h4V7.8
		h-4V6.3z"/>
	<path class="st0" d="M65.9,21.5h16.6v31.1h3.8v1.2H66.2v-1.2h3.7V22.7h-4V21.5z M76.2,16.8c-2.4,0-4.1-0.6-5.1-1.8
		c-1-1.2-1.5-2.7-1.5-4.5s0.6-3.3,1.7-4.5c1.1-1.2,2.8-1.8,5.1-1.8s4,0.5,5.2,1.6c1.2,1.1,1.8,2.6,1.8,4.5s-0.6,3.5-1.7,4.7
		C80.3,16.2,78.6,16.8,76.2,16.8z"/>
	<path class="st0" d="M92.6,50.2c-2.9-2.9-4.3-7-4.3-12.5c0-5.4,1.5-9.6,4.7-12.5c3.1-2.9,7.5-4.4,13.1-4.4c5.6,0,9.8,1.3,12.6,4
		c2.8,2.7,4.1,6.8,4.1,12.3c0,11.5-5.7,17.3-17.2,17.3C99.8,54.5,95.5,53.1,92.6,50.2z M109.6,40.5v-5.8c0-4.4-0.2-7.6-0.7-9.6
		s-1.6-3-3.3-3c-1,0-1.8,0.3-2.4,0.9c-0.6,0.6-1.1,1.5-1.3,2.8c-0.4,2-0.6,5.1-0.6,9.3v5.3c0,4.9,0.1,7.9,0.4,8.9
		c0.3,1,0.6,1.8,0.9,2.4c0.5,1.1,1.5,1.6,2.9,1.6c1.8,0,2.9-1,3.5-3.1C109.4,48.8,109.6,45.5,109.6,40.5z"/>
	<path class="st0" d="M124.7,21.5h16.4v6.2c0.7-2.1,1.8-3.8,3.3-5c1.5-1.3,3.8-1.9,6.8-1.9c7,0,10.5,3.8,10.5,11.3v20.4h3.8v1.2
		h-19.2v-1.2h2.8V30.5c0-2.7-0.2-4.5-0.5-5.3c-0.4-0.8-1-1.2-2-1.2c-1.4,0-2.7,1-3.8,2.9c-1.1,1.9-1.7,4.2-1.7,6.9v18.7h2.9v1.2
		h-19.3v-1.2h3.7V22.7h-3.7V21.5z"/>
	<path class="st0" d="M226.4,29.3c0,9.3-2.6,15.8-7.9,19.5c-4.8,3.4-11.5,5.1-20,5.1h-19.2v-1.3h4.5V7.6h-4.5V6.3h21
		c8.7,0,15.2,1.8,19.5,5.3C224.2,15.2,226.4,21.1,226.4,29.3z M197.1,52.5h2.6c4.6,0,7.8-1.6,9.8-4.9c2-3.2,3-8.7,3-16.3v-3.9
		c0-10.2-1.9-16.3-5.8-18.4c-1.9-1-4.5-1.5-7.9-1.5h-1.6V52.5z"/>
	<path class="st0" d="M234.6,50c-2.9-3-4.4-7.2-4.4-12.6c0-5.4,1.6-9.5,4.9-12.3c3.3-2.9,7.5-4.3,12.5-4.3
		c10.3,0,15.2,5.2,14.8,15.5h-19.1V39c0,4.4,0.6,7.8,1.7,10c1.1,2.3,3.1,3.4,5.9,3.4c5.3,0,8.7-2.8,10.3-8.4l1.2,0.2
		c-0.9,3.3-2.4,5.8-4.6,7.6c-2.2,1.8-5.6,2.7-10.1,2.7C241.9,54.5,237.5,53,234.6,50z M243.4,35h7v-3.3c0-3.7-0.2-6.2-0.6-7.5
		c-0.4-1.3-1.3-2-2.6-2s-2.2,0.7-2.9,2.1c-0.6,1.4-0.9,3.9-0.9,7.4V35z"/>
	<path class="st0" d="M265.8,54.5V42.4h0.8c1.2,3.9,2.8,6.7,4.8,8.3c2,1.6,4.5,2.4,7.5,2.4c4.6,0,6.9-1.5,6.9-4.4
		c0-1.3-0.6-2.2-1.7-2.9c-1.8-1-4-1.8-6.8-2.3c-3.1-0.8-5.7-1.9-7.7-3.3c-2.5-1.6-3.7-4.2-3.7-7.7s1.1-6.3,3.3-8.5
		c2.2-2.1,5.1-3.2,8.7-3.2c2.2,0,4.5,0.5,6.9,1.6c0.9,0.4,1.5,0.5,2,0.5s0.8-0.2,1.2-0.5c0.3-0.3,0.7-0.9,1.2-1.8h0.7v10.4h-0.8
		c-2.3-5.9-5.9-8.8-10.7-8.8c-2.1,0-3.7,0.4-4.8,1.1c-1,0.7-1.6,1.7-1.6,2.8c0,0.7,0.2,1.2,0.5,1.6c0.3,0.4,0.6,0.7,0.7,0.8
		c0.2,0.2,0.5,0.4,0.9,0.6c0.4,0.2,0.7,0.4,1,0.5c0.3,0.1,0.7,0.3,1.3,0.4c0.6,0.2,1,0.3,1.3,0.3c3.1,0.8,5.3,1.4,6.7,2
		c1.4,0.6,2.6,1.3,3.9,2.1c2.5,1.7,3.7,4.5,3.7,8.3c0,3.8-1.1,6.7-3.4,8.7c-2.3,2-5.4,3-9.3,3c-2.8,0-5.5-0.7-8.1-2
		c-0.5-0.4-1-0.5-1.3-0.5c-1,0-2,0.8-2.9,2.5H265.8z"/>
	<path class="st0" d="M293.4,21.5H310v31.1h3.8v1.2h-20.2v-1.2h3.7V22.7h-4V21.5z M303.6,16.8c-2.4,0-4.1-0.6-5.1-1.8
		c-1-1.2-1.5-2.7-1.5-4.5s0.6-3.3,1.7-4.5c1.1-1.2,2.8-1.8,5.1-1.8s4,0.5,5.2,1.6c1.2,1.1,1.8,2.6,1.8,4.5s-0.6,3.5-1.7,4.7
		C307.8,16.2,306,16.8,303.6,16.8z"/>
	<path class="st0" d="M342.4,18l1.9-1.2c0.3-1.4-0.3-2.1-1.6-2.1c-1.9,0-2.9,1.5-2.9,4.5c0,1.2,0.2,2.5,0.5,4.1
		c3.4,2.3,5.2,5.3,5.2,8.9c0,3.6-1.2,6.4-3.7,8.4s-5.9,3-10.1,3c-1.8,0-3.6-0.2-5.5-0.5c-2,1.3-3,2.2-3,2.9c0,0.6,1.4,1,4.3,1h6.9
		c10.3,0,15.4,3.7,15.4,11.1c0,4-1.5,7.1-4.7,9.5c-3.1,2.3-7.9,3.5-14.5,3.5c-11.2,0-16.8-2.4-16.8-7.3c0-2.6,1.7-4.4,5.2-5.4
		l4.1,1.8c-0.4,1.3-0.5,2.6-0.5,3.7c0,3.9,2.9,5.8,8.7,5.8c3.5,0,6.2-0.7,8.1-2c1.9-1.3,2.9-2.9,2.9-4.9c0-1.9-0.6-3.2-1.7-3.9
		c-1.2-0.7-3.5-1-6.9-1H327c-3.7,0-6.3-0.6-7.9-1.8c-1.6-1.2-2.4-2.7-2.4-4.5c0-1.8,0.6-3.3,1.7-4.5c1.1-1.2,3.1-2.7,6-4.4
		c-5.3-1.5-7.9-4.9-7.9-10.3c0-3.4,1.2-6.1,3.7-8.2c2.4-2.1,6.1-3.1,11-3.1c2.9,0,5.5,0.6,7.5,1.7c-0.3-1.2-0.4-2.3-0.4-3.3
		c0-2.5,0.7-4.4,2-5.5c1.4-1.1,2.9-1.7,4.5-1.7c1.7,0,3,0.4,4,1.3c1,0.9,1.5,2.1,1.5,3.6s-0.4,2.7-1.2,3.4c-0.8,0.7-1.8,1.1-3,1.1
		c-1.2,0-2.1-0.3-2.9-0.9C342.8,20,342.4,19.1,342.4,18z M328,30.7v3.7c0,3,0.3,5.1,0.8,6.2c0.5,1.1,1.3,1.6,2.4,1.6
		s1.8-0.5,2.3-1.6c0.5-1.1,0.7-3.2,0.7-6.5v-3.3c0-3.5-0.2-5.8-0.7-7c-0.5-1.1-1.2-1.7-2.3-1.7c-1.1,0-1.9,0.6-2.4,1.7
		C328.3,24.9,328,27.2,328,30.7z"/>
	<path class="st0" d="M350.7,21.5h16.4v6.2c0.7-2.1,1.8-3.8,3.3-5c1.5-1.3,3.8-1.9,6.8-1.9c7,0,10.5,3.8,10.5,11.3v20.4h3.8v1.2
		h-19.2v-1.2h2.8V30.5c0-2.7-0.2-4.5-0.5-5.3c-0.4-0.8-1-1.2-2-1.2c-1.4,0-2.7,1-3.8,2.9c-1.1,1.9-1.7,4.2-1.7,6.9v18.7h2.9v1.2
		h-19.3v-1.2h3.7V22.7h-3.7V21.5z"/>
	<path class="st0" d="M426,53.1c2.3,0,4.3-0.6,6-1.8c1.7-1.2,2.6-3.1,2.6-5.5c0-2.5-0.9-4.4-2.8-5.7s-4.5-2.5-8-3.4
		c-3.5-1-6-1.8-7.5-2.5c-1.6-0.7-3-1.7-4.4-2.9c-2.8-2.4-4.2-6-4.2-10.9c0-4,1.4-7.5,4.3-10.4c2.9-2.9,6.8-4.3,11.8-4.3
		c2.4,0,4.9,0.4,7.5,1.1c2.6,0.7,4.2,1.1,4.9,1.1c0.6,0,1.2-0.5,1.7-1.4h0.7L439,20h-1.1c-2.2-3.9-4.4-7.1-6.8-9.5
		c-2.4-2.4-5-3.6-7.7-3.6c-2.8,0-4.9,0.6-6.5,1.9c-1.5,1.3-2.3,3-2.3,5.2s0.9,3.8,2.7,5c1.8,1.2,4.1,2.1,6.8,2.8
		c2.7,0.7,4.4,1.2,5.3,1.5c0.8,0.3,1.9,0.6,3.1,1.1c1.2,0.5,2.3,1,3.1,1.5c0.8,0.5,1.6,1.2,2.5,2c0.9,0.8,1.6,1.7,2.1,2.6
		c1.2,2.2,1.8,4.8,1.8,7.7c0,4.9-1.5,8.8-4.6,11.8c-3.1,3-7.1,4.4-12,4.4c-2.6,0-5.5-0.3-8.9-1c-3.3-0.7-5.2-1-5.5-1
		c-0.6,0-1.2,0.7-1.8,2h-1l-0.7-16.2h1.2c2,3.9,4.5,7.4,7.6,10.3C419.3,51.6,422.6,53.1,426,53.1z"/>
	<path class="st0" d="M442.3,22.7v-1.2H462v1.2h-3.7l7.4,22.5l7.9-22.5H469v-1.2h9.6v1.2h-3.4l-12.7,36.6c-1.5,4.3-3.2,7.2-5,8.9
		c-1.9,1.7-4.1,2.5-6.8,2.5s-4.8-0.6-6.3-1.8c-1.5-1.2-2.3-2.8-2.3-4.7s0.5-3.4,1.5-4.3c1-1,2.3-1.5,3.9-1.5c3.8,0,5.6,1.6,5.6,4.7
		c0,0.7-0.1,1.5-0.4,2.4h-2.4c-0.4,1-0.4,1.9-0.1,2.6c0.3,0.7,0.9,1,1.8,1c1.9,0,3.5-0.9,5-2.7c1.4-1.8,2.8-4.6,4.1-8.4l1.5-4.2h-6
		l-11.6-31.1H442.3z"/>
	<path class="st0" d="M478.3,54.5V42.4h0.8c1.2,3.9,2.8,6.7,4.8,8.3c2,1.6,4.5,2.4,7.5,2.4c4.6,0,6.9-1.5,6.9-4.4
		c0-1.3-0.6-2.2-1.7-2.9c-1.8-1-4-1.8-6.8-2.3c-3.1-0.8-5.7-1.9-7.7-3.3c-2.5-1.6-3.7-4.2-3.7-7.7s1.1-6.3,3.3-8.5
		c2.2-2.1,5.1-3.2,8.7-3.2c2.2,0,4.5,0.5,6.9,1.6c0.9,0.4,1.5,0.5,2,0.5c0.5,0,0.8-0.2,1.2-0.5c0.3-0.3,0.7-0.9,1.2-1.8h0.7v10.4
		h-0.8c-2.3-5.9-5.9-8.8-10.7-8.8c-2.1,0-3.7,0.4-4.8,1.1c-1,0.7-1.6,1.7-1.6,2.8c0,0.7,0.2,1.2,0.5,1.6c0.3,0.4,0.6,0.7,0.7,0.8
		c0.2,0.2,0.5,0.4,0.9,0.6c0.4,0.2,0.7,0.4,1,0.5c0.3,0.1,0.7,0.3,1.3,0.4c0.6,0.2,1,0.3,1.3,0.3c3.1,0.8,5.3,1.4,6.7,2
		c1.4,0.6,2.6,1.3,3.9,2.1c2.5,1.7,3.7,4.5,3.7,8.3c0,3.8-1.1,6.7-3.4,8.7c-2.3,2-5.4,3-9.3,3c-2.8,0-5.5-0.7-8.1-2
		c-0.5-0.4-1-0.5-1.3-0.5c-1,0-2,0.8-2.9,2.5H478.3z"/>
	<path class="st0" d="M508.9,44.1V22.7h-3.7v-1.2h3.7v-8.8l12.6-3.1v11.9h8.8v1.2h-8.8v22.9c0,2.1,0.2,3.7,0.6,4.7
		c0.4,1,1.3,1.5,2.7,1.5c1.4,0,2.5-0.7,3.6-2c1-1.4,1.7-3.2,2-5.6l1.2,0.1c-0.4,3.1-1.4,5.6-3,7.4c-1.6,1.8-4.3,2.8-8.1,2.8
		s-6.6-0.7-8.6-2.2C509.9,50.8,508.9,48.1,508.9,44.1z"/>
	<path class="st0" d="M536.9,50c-2.9-3-4.4-7.2-4.4-12.6c0-5.4,1.6-9.5,4.9-12.3c3.3-2.9,7.5-4.3,12.5-4.3
		c10.3,0,15.2,5.2,14.8,15.5h-19.1V39c0,4.4,0.6,7.8,1.7,10c1.1,2.3,3.1,3.4,5.9,3.4c5.3,0,8.7-2.8,10.3-8.4l1.2,0.2
		c-0.9,3.3-2.4,5.8-4.6,7.6s-5.6,2.7-10.1,2.7C544.2,54.5,539.9,53,536.9,50z M545.7,35h7v-3.3c0-3.7-0.2-6.2-0.6-7.5
		c-0.4-1.3-1.3-2-2.6-2c-1.3,0-2.2,0.7-2.9,2.1c-0.6,1.4-0.9,3.9-0.9,7.4V35z"/>
	<path class="st0" d="M567.2,21.5h16.4v6.2c1.5-4.6,4.8-6.9,9.9-6.9c5.1,0,8.2,2.4,9.3,7.3c1.6-4.9,4.9-7.3,10-7.3
		c6.7,0,10,3.8,10,11.3v20.4h3.8v1.2h-18.8v-1.2h2.4V30.5c0-3.4-0.3-5.5-0.9-6c-0.3-0.3-0.6-0.4-1.1-0.4c-1.3,0-2.5,0.9-3.5,2.6
		c-1,1.8-1.5,4-1.5,6.7v19.1h2.4v1.2h-17.4v-1.2h2.4V30.5c0-3.4-0.3-5.5-0.9-6c-0.3-0.3-0.6-0.4-1.1-0.4c-1.3,0-2.4,1-3.4,2.9
		c-1,1.9-1.5,4.2-1.5,6.9v18.7h2.4v1.2h-18.8v-1.2h3.7V22.7h-3.7V21.5z"/>
</g>
</svg>
